<svg width="238" height="40" viewBox="0 0 238 40" fill="none" xmlns="http://www.w3.org/2000/svg"><g clip-path="url(#clip0_2603_712)"><path d="M36.629 19.66H36.6121L36.069 16.9401H33.8205L32.3696 22.3459H34.0921L34.8387 19.592H34.8557L35.4411 22.3459H36.4933L38.4108 19.711H38.4278L37.7151 22.3459H39.463L40.9139 16.9401H38.7587L36.629 19.66Z" fill="#101B41"></path><path d="M43.3235 16.9401H41.5247L40.0823 22.3459H41.8811L43.3235 16.9401Z" fill="#101B41"></path><path d="M26.4387 22.3459H28.1527L28.5514 20.8585L29.3999 20.2635L30.4945 22.3459H32.3442L30.6981 19.2775L33.7018 16.9401H31.4533L26.9648 20.408L26.4387 22.3459Z" fill="#101B41"></path><path d="M27.1174 19.8215L30.8508 16.9401H27.8896L27.1174 19.8215Z" fill="#BE202B"></path><path d="M42.314 2.03995C46.3867 2.03995 50.451 3.8674 53.4716 7.06332C56.5855 10.3442 58.2995 14.6536 58.2995 19.1925C58.2995 23.7314 56.5855 28.0408 53.4716 31.3217C50.451 34.5091 46.3782 36.3451 42.314 36.3451C42.2207 36.3451 42.1104 36.3451 42.0001 36.3451C49.594 34.6451 55.5334 27.2928 55.5334 19.201C55.5334 11.1092 49.6025 3.7484 42.0001 2.05695C42.1104 2.05695 42.2122 2.05695 42.314 2.05695M42.314 1.86145C41.7879 1.86145 40.8631 1.88695 40.354 1.94645C48.177 2.82193 55.3552 10.2082 55.3552 19.184C55.3552 28.1598 48.177 35.5461 40.354 36.4216C40.8716 36.4811 41.7879 36.5066 42.314 36.5066C50.8667 36.5066 58.4776 28.7463 58.4776 19.1755C58.4776 9.60475 50.8752 1.86145 42.314 1.86145Z" fill="#101B41"></path><path d="M47.5406 6.90184C44.2909 3.64642 39.9636 1.85297 35.3648 1.85297H35.2545C30.6982 1.87847 26.4218 3.67192 23.1891 6.90184C20.2364 9.85977 18.4545 13.7952 18.183 17.9686V18.0536L18.1491 18.0876V24.5304H7.9503L16.3164 16.1496C16.9273 12.1717 18.7345 8.5508 21.5345 5.66087V2.88994L0 24.4454V30.2083H18.1491V38.4021L23.8 34.0162V18.8695H23.8255V18.3086C24.0121 15.5121 25.2085 12.8857 27.1855 10.8967C29.3661 8.71229 32.2764 7.50532 35.3648 7.50532C38.4533 7.50532 41.3552 8.71229 43.5442 10.8967C45.7248 13.0812 46.9297 15.9966 46.9297 19.0905C46.9297 22.1845 45.7248 25.0914 43.5442 27.2843C41.3636 29.4688 38.4533 30.6757 35.3648 30.6757C32.2764 30.6757 29.3745 29.4688 27.1855 27.2843C26.863 26.9613 26.5661 26.6298 26.2861 26.2729V33.7527C29.0097 35.4441 32.1406 36.3451 35.3648 36.3451C39.9636 36.3451 44.2909 34.5516 47.5406 31.2962C50.7903 28.0408 52.5806 23.7059 52.5806 19.099C52.5806 14.4921 50.7903 10.1573 47.5406 6.90184Z" fill="#101B41"></path><path d="M75.9394 16.9316C75.7442 16.6256 75.5151 16.2261 75.2606 15.7501L70.84 7.98978L74.5394 3.45089C74.6836 3.2639 74.8194 3.0939 74.9551 2.9324C75.0909 2.77091 75.2266 2.62641 75.3539 2.48191C75.4812 2.33742 75.6169 2.18442 75.7442 2.03143C75.8715 1.88693 76.0157 1.72543 76.1939 1.54694L76.4145 1.32594H72.5709L72.5285 1.38544C72.2824 1.75943 72.0618 2.08242 71.8751 2.34592C71.68 2.60941 71.4424 2.9239 71.1709 3.28939L67.3527 8.32127V3.68888C67.3527 3.29789 67.3527 2.9239 67.3782 2.57541C67.3951 2.22692 67.4206 1.85293 67.463 1.46194L67.48 1.31744H64.2727V1.45344C64.3151 1.84443 64.3406 2.21842 64.3576 2.56691C64.383 2.9154 64.3915 3.28939 64.3915 3.68038V15.8181C64.3915 16.2176 64.383 16.6086 64.3576 16.9741C64.3406 17.3395 64.3066 17.722 64.2812 18.113V18.249H67.48L67.463 18.1045C67.4206 17.7135 67.3951 17.3395 67.3782 16.9741C67.3612 16.6086 67.3527 16.2261 67.3527 15.8181V12.2822L68.9988 10.2592L71.943 15.9881C72.1551 16.4046 72.3333 16.7701 72.4691 17.076C72.6048 17.382 72.7576 17.7475 72.9357 18.1725L72.9697 18.249H76.8557L76.7115 18.045C76.3976 17.603 76.143 17.2205 75.9479 16.9146L75.9394 16.9316Z" fill="#101B41"></path><path d="M94.1308 16.8551C94.0884 16.5066 94.0544 16.0731 94.0205 15.5716L93.155 3.88439C93.1296 3.6549 93.1041 3.4424 93.1041 3.25541C93.1041 3.05991 93.0871 2.86442 93.0702 2.67742C93.0532 2.50743 93.0532 2.32893 93.0532 2.13344C93.0532 1.93794 93.0532 1.72545 93.0787 1.47895V1.34296H89.1671L86.5199 10.9307C86.3756 11.4407 86.2483 11.9507 86.138 12.4437C86.0787 12.6902 86.0362 12.9452 85.9938 13.2087C85.9174 12.8602 85.8496 12.5372 85.7902 12.2397C85.6799 11.7467 85.578 11.2962 85.4762 10.8882L82.8968 1.35146H78.9853V1.47895C78.9853 1.72545 78.9853 1.94644 78.9768 2.13344C78.9768 2.32893 78.9684 2.51593 78.9684 2.68592L78.9259 3.26391C78.909 3.4594 78.9005 3.6719 78.8835 3.90139L77.9756 15.5801C77.9502 15.8436 77.9247 16.0731 77.9077 16.2771C77.8908 16.4726 77.8738 16.6681 77.8399 16.8636C77.8229 17.0676 77.8059 17.2631 77.772 17.4586C77.7465 17.6625 77.7041 17.8835 77.6617 18.13L77.6362 18.283H80.7926L80.7756 18.1385C80.7502 17.9005 80.7332 17.6795 80.7332 17.4841V16.8806C80.7332 16.6936 80.7332 16.5066 80.7502 16.3026C80.7671 16.0986 80.7756 15.8691 80.7926 15.6056L81.1574 8.09179C81.1744 7.7008 81.1914 7.35231 81.2084 7.04631C81.2338 6.73182 81.2508 6.44283 81.2593 6.17084C81.2762 6.00934 81.2932 5.84784 81.3017 5.69485C81.3356 5.87334 81.3696 6.06034 81.412 6.25583C81.5393 6.87632 81.692 7.4968 81.8702 8.10879L84.6193 18.2065L84.6447 18.3H87.1393L90.1768 7.6583C90.2871 7.26731 90.4059 6.83382 90.5247 6.34933C90.5756 6.15384 90.6265 5.93284 90.6774 5.70335C90.6774 5.89884 90.6774 6.08584 90.6774 6.28133L90.7199 7.06331C90.7368 7.32681 90.7538 7.5903 90.7877 7.84529L91.2035 15.6141C91.2205 16.1241 91.229 16.5491 91.2374 16.9061C91.2374 17.2631 91.2374 17.6795 91.2035 18.164V18.3H94.3429L94.3174 18.147C94.2326 17.6625 94.1647 17.2376 94.1223 16.8806L94.1308 16.8551Z" fill="#101B41"></path><path d="M100.308 2.59244C100.325 2.24395 100.35 1.86996 100.393 1.47897L100.41 1.33447H97.1599V1.47047C97.2023 1.86146 97.2278 2.23545 97.2448 2.58394C97.2702 2.93243 97.2787 3.30642 97.2787 3.69741V15.8351C97.2787 16.2346 97.2702 16.6256 97.2448 16.9911C97.2278 17.3566 97.1938 17.7391 97.1684 18.1301V18.266H100.41L100.393 18.1216C100.35 17.7306 100.325 17.3481 100.308 16.9911C100.291 16.6256 100.282 16.2431 100.282 15.8351V3.70591C100.282 3.31492 100.282 2.94093 100.308 2.59244Z" fill="#101B41"></path><path d="M120.637 5.86486C120.349 5.86486 120.077 5.87336 119.814 5.87336H119.102V2.48194C119.102 2.12495 119.102 1.75946 119.11 1.40247C119.11 1.04548 119.144 0.679986 119.187 0.305995L119.204 0.161499H116.056L116.073 0.305995C116.115 0.679986 116.141 1.04548 116.157 1.40247C116.174 1.75946 116.183 2.12495 116.183 2.48194V12.2057C116.183 12.5712 116.183 12.9452 116.157 13.3107C116.141 13.6677 116.115 14.0247 116.073 14.3901L116.056 14.5346H119.204L119.187 14.3901C119.144 14.0332 119.119 13.6762 119.11 13.3192C119.11 12.9622 119.102 12.5882 119.102 12.2142V8.61029H119.865C120.111 8.61029 120.374 8.61029 120.654 8.61879C120.926 8.61879 121.197 8.65279 121.452 8.69529L121.605 8.72079V5.77136L121.452 5.79686C121.197 5.83936 120.926 5.86486 120.646 5.87336L120.637 5.86486Z" fill="#101B41"></path><path d="M117.905 16.8721C117.388 16.8721 116.845 16.8806 116.285 16.8806H108.869V15.5971C108.869 15.3506 108.869 15.0871 108.878 14.8067C108.878 14.5347 108.912 14.2627 108.954 14.0077L108.979 13.8547H105.73L105.755 14.0077C105.798 14.2542 105.823 14.5262 105.832 14.8152C105.832 15.1041 105.84 15.3761 105.84 15.6396L105.815 19.507H116.285C116.845 19.507 117.388 19.507 117.905 19.5155C118.423 19.5155 118.966 19.5495 119.526 19.592H119.662V16.7871H119.526C118.975 16.8381 118.432 16.8636 117.905 16.8721Z" fill="#101B41"></path><path d="M109.107 12.9537C109.87 12.9537 110.583 12.8687 111.228 12.6987C111.881 12.5287 112.441 12.2822 112.899 11.9762C113.375 11.6787 113.756 11.3132 114.019 10.8967C114.291 10.4717 114.427 10.0043 114.427 9.50277C114.427 9.00128 114.291 8.52529 114.019 8.09181C113.748 7.65832 113.383 7.27582 112.916 6.96133C112.441 6.65534 111.881 6.40035 111.236 6.23035C110.592 6.05186 109.879 5.96686 109.124 5.96686C108.369 5.96686 107.673 6.06036 107.028 6.23035C106.383 6.40885 105.806 6.65534 105.322 6.96133C104.847 7.27582 104.466 7.64982 104.194 8.07481C103.914 8.50829 103.77 8.97578 103.77 9.47727C103.77 9.97876 103.914 10.4462 104.194 10.8712C104.466 11.2877 104.856 11.6617 105.348 11.9677C105.823 12.2822 106.392 12.5202 107.036 12.6902C107.681 12.8602 108.377 12.9452 109.107 12.9452V12.9537ZM109.149 10.6332C108.521 10.6332 107.953 10.5397 107.461 10.3527C107.003 10.1743 106.782 9.88526 106.782 9.46027C106.782 9.06078 107.003 8.77179 107.461 8.57629C107.944 8.3638 108.513 8.2618 109.141 8.2618C109.769 8.2618 110.278 8.3638 110.744 8.57629C111.186 8.77179 111.398 9.06928 111.398 9.47727C111.398 9.88526 111.186 10.1913 110.753 10.3527C110.286 10.5312 109.743 10.6247 109.141 10.6247L109.149 10.6332Z" fill="#101B41"></path><path d="M106.425 2.38844C106.536 2.38844 106.655 2.37994 106.765 2.37994H110.685C110.931 2.37994 111.168 2.37994 111.398 2.38844C111.627 2.38844 111.873 2.40544 112.136 2.42244H112.271V0L112.127 0.0169996C111.873 0.0424989 111.635 0.0594985 111.406 0.0594985H106.782C106.561 0.0594985 106.324 0.0424989 106.069 0.0169996L105.925 0V2.43944L106.069 2.42244C106.196 2.40544 106.315 2.39694 106.434 2.38844H106.425Z" fill="#101B41"></path><path d="M105.119 5.52489H113.137C113.442 5.52489 113.722 5.52489 113.977 5.53339C114.232 5.53339 114.52 5.56739 114.834 5.60989L114.978 5.62689V3.05145L114.834 3.06845C114.529 3.11095 114.24 3.13645 113.986 3.13645H104.253C103.999 3.13645 103.719 3.11945 103.43 3.06845L103.286 3.05145V5.62689L103.43 5.60989C103.727 5.56739 104.007 5.54189 104.262 5.53339C104.525 5.53339 104.805 5.52489 105.127 5.52489H105.119Z" fill="#101B41"></path><path d="M138.973 7.38632C138.566 7.38632 138.15 7.39482 137.735 7.39482C137.836 6.98683 137.947 6.54484 138.048 6.06885C138.167 5.51637 138.286 4.92138 138.388 4.3179C138.49 3.72291 138.575 3.11943 138.642 2.50744C138.71 1.89546 138.744 1.31747 138.744 0.781985V0.654488H126.628C126.17 0.654488 125.754 0.654488 125.381 0.645988C125.016 0.645988 124.608 0.611989 124.167 0.56949L124.023 0.55249V3.37442L124.167 3.35742C124.608 3.31492 125.016 3.28942 125.381 3.28092C125.745 3.28092 126.161 3.27242 126.628 3.27242H135.622C135.622 3.52742 135.588 3.81641 135.537 4.1309C135.478 4.51339 135.418 4.90438 135.342 5.30387C135.257 5.69486 135.164 6.08585 135.07 6.47684C134.985 6.83383 134.901 7.13983 134.824 7.39482H125.576C125.016 7.39482 124.464 7.39482 123.921 7.38632C123.387 7.38632 122.827 7.35232 122.275 7.30982H122.139V10.0978H122.275C122.827 10.0468 123.387 10.0213 123.921 10.0128C124.456 10.0043 125.016 10.0043 125.576 10.0043H129.504V12.5457H125.321C124.965 12.5457 124.566 12.5287 124.142 12.4862L123.998 12.4692V15.2911L124.142 15.2741C124.566 15.2316 124.965 15.2061 125.321 15.1976C125.678 15.1976 126.076 15.1891 126.509 15.1891H135.291V17.8156C135.291 18.1301 135.291 18.47 135.282 18.8355C135.282 19.1925 135.249 19.524 135.206 19.8215L135.189 19.966H138.413L138.396 19.8215C138.354 19.507 138.328 19.1755 138.312 18.8355C138.295 18.487 138.286 18.147 138.286 17.8156V14.3221C138.286 14.0502 138.286 13.7782 138.295 13.5147C138.295 13.2512 138.329 12.9792 138.371 12.6902L138.396 12.5457H132.61V10.0043H137.073C137.633 10.0043 138.184 10.0043 138.727 10.0128C139.27 10.0213 139.822 10.0468 140.373 10.0893H140.509V7.30132L140.365 7.31832C139.89 7.36082 139.423 7.38632 138.965 7.39482L138.973 7.38632Z" fill="#101B41"></path><path d="M144.497 9.55375C144.981 10.0297 145.566 10.4037 146.228 10.6757C146.89 10.9477 147.636 11.0837 148.443 11.0837C149.249 11.0837 149.978 10.9477 150.64 10.6757C151.302 10.4037 151.879 10.0212 152.346 9.55375C152.829 9.07777 153.211 8.51678 153.483 7.8793C153.746 7.24181 153.881 6.56183 153.881 5.85635C153.881 5.15087 153.746 4.48788 153.483 3.8589C153.219 3.22991 152.838 2.67743 152.346 2.21844C151.87 1.74245 151.302 1.36846 150.632 1.09647C149.97 0.824473 149.232 0.688477 148.434 0.688477C147.636 0.688477 146.881 0.824473 146.219 1.09647C145.558 1.36846 144.972 1.75095 144.489 2.21844C144.013 2.67743 143.64 3.22991 143.377 3.8589C143.114 4.48788 142.978 5.15936 142.978 5.85635C142.978 6.55333 143.114 7.25031 143.377 7.8793C143.64 8.51678 144.013 9.07777 144.489 9.55375H144.497ZM148.443 3.27241C149.232 3.27241 149.843 3.52741 150.301 4.04589C150.75 4.56438 150.979 5.17636 150.979 5.88185C150.979 6.58733 150.75 7.24181 150.301 7.7518C149.851 8.25329 149.223 8.50828 148.443 8.50828C147.662 8.50828 147.017 8.24479 146.567 7.7348C146.118 7.21631 145.889 6.58733 145.889 5.85635C145.889 5.12537 146.118 4.53888 146.567 4.02889C147.017 3.52741 147.645 3.27241 148.443 3.27241Z" fill="#101B41"></path><path d="M158.921 18.283C158.921 17.7985 158.913 17.3141 158.913 16.8211V3.20441C158.913 2.72842 158.913 2.24393 158.921 1.75944C158.921 1.27496 158.955 0.790467 158.998 0.30598V0.169983H155.892V0.30598C155.951 0.798967 155.977 1.28346 155.994 1.76794C156.011 2.25243 156.019 2.72842 156.019 3.20441V16.8211C156.019 17.3141 156.019 17.7985 155.994 18.283C155.977 18.759 155.951 19.2435 155.909 19.7195V19.864H159.015L158.998 19.7195C158.955 19.252 158.93 18.7675 158.921 18.283Z" fill="#101B41"></path><path d="M153.567 12.9282C152.914 13.0047 152.252 13.0727 151.573 13.1322C150.92 13.2087 150.3 13.2597 149.74 13.2937C149.163 13.3277 148.714 13.3447 148.383 13.3447L144.633 13.4127C144.225 13.4297 143.844 13.4297 143.504 13.4212C143.165 13.4212 142.791 13.3872 142.401 13.3447L142.257 13.3277V16.1581L142.401 16.1411C142.783 16.0986 143.156 16.0731 143.504 16.0646C143.86 16.0646 144.234 16.0561 144.641 16.0561C146.788 16.0561 148.807 15.9881 150.631 15.8521C152.464 15.7161 154.076 15.4951 155.417 15.2061L155.519 15.1806V12.6222L155.366 12.6477C154.84 12.7497 154.237 12.8432 153.576 12.9197L153.567 12.9282Z" fill="#101B41"></path><path d="M164.945 2.38844C165.056 2.38844 165.175 2.37994 165.285 2.37994H169.205C169.451 2.37994 169.688 2.37994 169.918 2.38844C170.147 2.38844 170.393 2.40544 170.656 2.42244H170.791V0L170.647 0.0169996C170.393 0.0424989 170.155 0.0594985 169.926 0.0594985H165.302C165.081 0.0594985 164.844 0.0424989 164.589 0.0169996L164.445 0V2.43944L164.589 2.42244C164.716 2.40544 164.835 2.39694 164.954 2.38844H164.945Z" fill="#101B41"></path><path d="M163.639 5.43984H171.657C171.963 5.43984 172.243 5.43984 172.497 5.44834C172.752 5.44834 173.04 5.48234 173.354 5.52483L173.498 5.54183V2.9834L173.354 3.0004C173.049 3.0429 172.76 3.0599 172.506 3.0599H162.773C162.519 3.0599 162.239 3.0429 161.95 3.0004L161.806 2.9834V5.54183L161.95 5.52483C162.247 5.48234 162.527 5.45684 162.782 5.44834C163.045 5.44834 163.325 5.43984 163.647 5.43984H163.639Z" fill="#101B41"></path><path d="M165.633 12.1887C166.269 12.3502 166.948 12.4352 167.644 12.4352C168.416 12.4352 169.137 12.3502 169.773 12.1887C170.418 12.0272 170.978 11.8062 171.436 11.5257C171.912 11.2282 172.285 10.8712 172.548 10.4632C172.811 10.0552 172.947 9.59623 172.947 9.11174C172.947 8.15977 172.455 7.36079 171.487 6.7573C170.537 6.16232 169.256 5.85632 167.678 5.85632C166.906 5.85632 166.184 5.94132 165.548 6.10282C164.903 6.26431 164.335 6.48531 163.868 6.7658C163.393 7.04629 163.011 7.39479 162.739 7.80277C162.468 8.21076 162.324 8.66125 162.324 9.13724C162.324 9.61323 162.468 10.0637 162.756 10.4717C163.036 10.8797 163.435 11.2282 163.919 11.5087C164.403 11.8062 164.971 12.0357 165.616 12.1972L165.633 12.1887ZM167.669 8.02377C168.289 8.02377 168.815 8.11727 169.256 8.30426C169.663 8.47426 169.858 8.73775 169.858 9.11174C169.858 9.48573 169.663 9.74923 169.264 9.93622C168.832 10.1402 168.297 10.2422 167.669 10.2422C167.041 10.2422 166.524 10.1402 166.057 9.94472C165.624 9.76623 165.412 9.49423 165.412 9.12874C165.412 8.76325 165.624 8.49976 166.066 8.31276C166.541 8.11727 167.075 8.01527 167.661 8.01527L167.669 8.02377Z" fill="#101B41"></path><path d="M177.639 18.7931C177.622 18.4446 177.613 18.1046 177.613 17.7731V15.2146C177.613 14.9427 177.613 14.6707 177.622 14.4072C177.622 14.1437 177.656 13.8717 177.698 13.5912L177.724 13.4467H165.174C164.818 13.4467 164.428 13.4212 163.995 13.3787L163.851 13.3617V16.0986L163.995 16.0816C164.419 16.0391 164.818 16.0136 165.174 16.0051C165.531 16.0051 165.93 15.9966 166.362 15.9966H174.559V17.7816C174.559 18.0961 174.559 18.4361 174.55 18.8016C174.55 19.1585 174.516 19.49 174.474 19.7875L174.457 19.932H177.741L177.724 19.7875C177.681 19.4815 177.656 19.15 177.639 18.8016V18.7931Z" fill="#101B41"></path><path d="M179.132 5.47384C178.844 5.47384 178.572 5.48234 178.309 5.48234H177.613V2.46491C177.613 2.10792 177.613 1.74243 177.622 1.38544C177.622 1.02845 177.656 0.662957 177.698 0.288967L177.715 0.14447H174.584L174.601 0.288967C174.644 0.654457 174.669 1.02845 174.686 1.38544C174.703 1.74243 174.712 2.10792 174.712 2.46491V12.9282H177.613V8.23627H178.352C178.598 8.23627 178.861 8.23627 179.141 8.24477C179.421 8.24477 179.684 8.27877 179.938 8.32127L180.091 8.34676V5.37184L179.938 5.39734C179.692 5.43984 179.421 5.46534 179.132 5.47384Z" fill="#101B41"></path><path d="M196.212 16.8721C195.695 16.8721 195.151 16.8806 194.591 16.8806H186.921V14.4666C186.921 14.2201 186.921 13.9567 186.93 13.6762C186.93 13.4042 186.964 13.1322 187.006 12.8772L187.031 12.7242H183.824L183.85 12.8772C183.892 13.1322 183.918 13.4042 183.926 13.6847C183.926 13.9737 183.935 14.2456 183.935 14.5091V19.4985H194.6C195.16 19.4985 195.703 19.4985 196.221 19.507C196.738 19.507 197.281 19.541 197.841 19.5835H197.977V16.7786H197.841C197.29 16.8296 196.747 16.8551 196.221 16.8636L196.212 16.8721Z" fill="#101B41"></path><path d="M186.616 11.1517C187.532 11.1517 188.372 10.9562 189.11 10.5652C189.831 10.1827 190.442 9.68974 190.926 9.09476H194.617V12.0697C194.617 12.4437 194.617 12.8177 194.591 13.1747C194.574 13.5316 194.549 13.8971 194.507 14.2541L194.49 14.3986H197.663L197.646 14.2541C197.604 13.8971 197.578 13.5316 197.57 13.1832C197.57 12.8262 197.561 12.4522 197.561 12.0782V2.49042C197.561 2.13343 197.561 1.76794 197.57 1.41095C197.57 1.06246 197.604 0.68847 197.646 0.314479L197.663 0.169983H194.498V0.314479C194.541 0.628971 194.557 0.943464 194.574 1.24946C194.583 1.51295 194.591 1.78494 194.591 2.05694H190.612C190.137 1.54695 189.551 1.12196 188.873 0.807467C188.177 0.484475 187.413 0.314479 186.607 0.314479C185.801 0.314479 185.071 0.467475 184.41 0.756468C183.748 1.05396 183.171 1.45345 182.704 1.92944C182.221 2.41393 181.839 3.00041 181.584 3.6549C181.33 4.30938 181.194 5.00636 181.194 5.72884C181.194 6.45133 181.321 7.16531 181.584 7.81979C181.839 8.46577 182.221 9.04376 182.704 9.53675C183.171 10.0212 183.748 10.4122 184.418 10.7012C185.08 10.9902 185.818 11.1347 186.616 11.1347V11.1517ZM186.616 2.94091C187.379 2.94091 187.956 3.21291 188.389 3.77389C188.822 4.33488 189.042 4.99786 189.042 5.74584C189.042 6.49382 188.822 7.15681 188.389 7.71779C187.956 8.27878 187.379 8.55077 186.616 8.55077C185.852 8.55077 185.284 8.27878 184.851 7.72629C184.427 7.16531 184.206 6.50232 184.206 5.75434C184.206 5.00636 184.427 4.34338 184.851 3.78239C185.275 3.22141 185.852 2.94941 186.616 2.94941V2.94091ZM192.046 5.45685C192.046 5.35485 192.029 5.25286 192.012 5.14236L191.97 4.83637C191.97 4.78537 191.961 4.74287 191.953 4.70037H194.617V6.44283H191.987C191.995 6.35783 192.012 6.27283 192.021 6.17933C192.046 6.03484 192.054 5.89034 192.054 5.74584C192.054 5.65235 192.054 5.55885 192.046 5.45685Z" fill="#101B41"></path><path d="M216.856 9.06076C216.415 9.06076 215.965 9.06926 215.498 9.06926C215.651 8.51677 215.795 7.91329 215.931 7.2588C216.075 6.53632 216.202 5.79684 216.304 5.06586C216.406 4.32638 216.482 3.58689 216.542 2.86441C216.601 2.13343 216.627 1.46195 216.627 0.858462V0.730965H204.595C204.137 0.730965 203.721 0.730965 203.348 0.722465C202.983 0.722465 202.567 0.688466 202.135 0.645967L201.99 0.628967V3.4764L202.135 3.4594C202.576 3.4169 202.983 3.3914 203.348 3.3829C203.713 3.3829 204.129 3.3744 204.595 3.3744H213.479C213.479 3.76539 213.445 4.19888 213.394 4.64937C213.335 5.15085 213.258 5.66934 213.156 6.19633C213.072 6.72332 212.961 7.2503 212.825 7.76029C212.698 8.23628 212.562 8.67827 212.435 9.06926H203.577C203.017 9.06926 202.465 9.06926 201.922 9.06076C201.379 9.05226 200.828 9.02676 200.276 8.98426H200.141V11.7722H200.276C200.836 11.7212 201.388 11.6957 201.922 11.6872C202.465 11.6872 203.017 11.6787 203.577 11.6787H207.675V17.6285C207.675 17.977 207.675 18.3255 207.667 18.691C207.667 19.048 207.633 19.3965 207.59 19.7195L207.573 19.864H210.815L210.789 19.7195C210.747 19.422 210.721 19.082 210.713 18.691C210.713 18.3 210.704 17.943 210.704 17.6285V11.6787H215.065C215.625 11.6787 216.177 11.6787 216.72 11.6872C217.255 11.6872 217.815 11.7212 218.366 11.7637H218.502V8.97576H218.366C217.857 9.03526 217.348 9.05226 216.847 9.06076H216.856Z" fill="#101B41"></path><path d="M221.285 10.9732C221.599 11.3302 221.87 11.6447 222.082 11.8997L222.142 11.9677L222.227 11.9422C223.55 11.5087 224.84 10.8457 226.062 9.97024C227.224 9.14576 228.157 8.12579 228.819 6.95281C229.15 7.4968 229.557 8.01529 230.024 8.49978C230.55 9.03526 231.119 9.53675 231.704 9.97024C232.298 10.4207 232.926 10.8202 233.562 11.1432C234.199 11.4662 234.835 11.7297 235.446 11.9252L235.531 11.9507L235.582 11.8827C235.794 11.6192 236.065 11.3047 236.371 10.9392C236.676 10.5737 236.999 10.2252 237.33 9.89374L237.491 9.73224L237.262 9.68125C236.379 9.48575 235.522 9.15426 234.708 8.70377C233.893 8.25328 233.155 7.7093 232.51 7.08881C231.874 6.46833 231.365 5.76284 230.983 4.99786C230.61 4.23288 230.423 3.4169 230.423 2.55842C230.423 2.29493 230.423 2.02294 230.431 1.72545C230.431 1.43645 230.465 1.16446 230.508 0.909466L230.533 0.75647H227.071L227.088 0.900966C227.114 1.17296 227.139 1.45345 227.156 1.74244C227.173 2.03144 227.182 2.30343 227.182 2.55842C227.182 3.4339 227.004 4.24988 226.639 4.99786C226.282 5.74584 225.782 6.42583 225.162 7.02081C224.534 7.6328 223.805 8.15978 222.973 8.59327C222.142 9.02676 221.242 9.38375 220.301 9.63875L220.088 9.69825L220.241 9.85124C220.614 10.2422 220.962 10.6162 221.276 10.9732H221.285Z" fill="#101B41"></path><path d="M237.864 15.1721C237.304 15.2146 236.753 15.2401 236.218 15.2486C235.675 15.2486 235.124 15.2571 234.564 15.2571H230.355V13.5147C230.355 13.2427 230.355 12.9282 230.364 12.5712C230.364 12.2227 230.398 11.8997 230.44 11.6192L230.465 11.4747H227.156L227.173 11.6192C227.216 11.9167 227.241 12.2312 227.25 12.5627C227.25 12.8942 227.258 13.2087 227.258 13.5147V15.2571H223.092C222.532 15.2571 221.981 15.2571 221.438 15.2486C220.903 15.2486 220.343 15.2146 219.792 15.1721H219.656V17.9601H219.792C220.352 17.9091 220.903 17.8836 221.438 17.8751C221.981 17.8751 222.532 17.8666 223.092 17.8666H234.555C235.115 17.8666 235.667 17.8666 236.21 17.8751C236.744 17.8751 237.304 17.9091 237.856 17.9516H237.992V15.1636H237.856L237.864 15.1721Z" fill="#101B41"></path><path d="M64.2559 27.6243H65.4862V32.2397H65.5286C65.7831 31.8742 66.0377 31.5342 66.2837 31.2197L69.2025 27.6328H70.7298L67.2765 31.6957L71.0013 37.2036H69.5419L66.394 32.5032L65.4862 33.5572V37.2036H64.2559V27.6413V27.6243Z" fill="#101B41"></path><path d="M74.5226 32.8942V33.8206H71.0269V32.8942H74.5226Z" fill="#101B41"></path><path d="M84.0764 32.9877C84.0086 31.6532 83.9237 30.0468 83.9322 28.8568H83.8898C83.5674 29.9788 83.1686 31.1687 82.6849 32.4862L80.9964 37.1271H80.0631L78.5189 32.5712C78.0692 31.2197 77.6873 29.9873 77.4158 28.8483H77.3904C77.3649 30.0383 77.2886 31.6447 77.2037 33.0812L76.9492 37.1866H75.7698L76.4316 27.6243H78.0013L79.6304 32.2482C80.0292 33.4297 80.3516 34.4752 80.5977 35.4696H80.6401C80.8777 34.5007 81.217 33.4552 81.6498 32.2482L83.3467 27.6243H84.9164L85.5104 37.1866H84.3055L84.068 32.9877H84.0764Z" fill="#101B41"></path><path d="M88.1493 33.9822C88.1748 35.6736 89.2523 36.3706 90.4996 36.3706C91.3905 36.3706 91.9336 36.2176 92.4002 36.0136L92.6123 36.9061C92.1711 37.1016 91.4245 37.3311 90.3299 37.3311C88.2172 37.3311 86.9614 35.9371 86.9614 33.8717C86.9614 31.8062 88.1832 30.1658 90.1772 30.1658C92.4172 30.1658 93.0111 32.1377 93.0111 33.4042C93.0111 33.6592 92.9857 33.8547 92.9687 33.9822H88.1493ZM91.8063 33.0897C91.8232 32.2907 91.4839 31.0582 90.0754 31.0582C88.8111 31.0582 88.2596 32.2227 88.1663 33.0897H91.8063Z" fill="#101B41"></path><path d="M100.478 27.1143V35.4186C100.478 36.0306 100.495 36.7276 100.537 37.1951H99.417L99.3576 36.0051H99.3322C98.9504 36.7701 98.1104 37.3566 96.9904 37.3566C95.3358 37.3566 94.0546 35.9541 94.0546 33.8632C94.0376 31.5767 95.4546 30.1742 97.1261 30.1742C98.1782 30.1742 98.8825 30.6757 99.1964 31.2282H99.2219V27.1228H100.469L100.478 27.1143ZM99.2304 33.1152C99.2304 32.9622 99.2134 32.7497 99.171 32.5882C98.9843 31.7977 98.3055 31.1432 97.3722 31.1432C96.0825 31.1432 95.3188 32.2822 95.3188 33.7952C95.3188 35.1891 95.9976 36.3366 97.3467 36.3366C98.1867 36.3366 98.9504 35.7841 99.171 34.8491C99.2134 34.6791 99.2304 34.5091 99.2304 34.3136V33.1237V33.1152Z" fill="#101B41"></path><path d="M103.931 28.3893C103.948 28.8143 103.634 29.1543 103.133 29.1543C102.692 29.1543 102.378 28.8143 102.378 28.3893C102.378 27.9643 102.701 27.6073 103.159 27.6073C103.617 27.6073 103.922 27.9473 103.922 28.3893H103.931ZM102.539 37.1951V30.3272H103.787V37.1951H102.539Z" fill="#101B41"></path><path d="M110.744 36.9401C110.422 37.1101 109.692 37.3396 108.776 37.3396C106.706 37.3396 105.365 35.9371 105.365 33.8377C105.365 31.7382 106.807 30.1913 109.047 30.1913C109.786 30.1913 110.439 30.3783 110.778 30.5483L110.498 31.5173C110.201 31.3473 109.735 31.1943 109.056 31.1943C107.486 31.1943 106.629 32.3587 106.629 33.7952C106.629 35.3847 107.647 36.3621 109.013 36.3621C109.718 36.3621 110.193 36.1751 110.541 36.0221L110.753 36.9571L110.744 36.9401Z" fill="#101B41"></path><path d="M115.996 37.1951L115.895 36.3281H115.852C115.47 36.8636 114.732 37.3481 113.756 37.3481C112.365 37.3481 111.661 36.3706 111.661 35.3762C111.661 33.7187 113.137 32.8092 115.784 32.8177V32.6732C115.784 32.1037 115.632 31.0838 114.223 31.0838C113.587 31.0838 112.916 31.2793 112.441 31.5938L112.161 30.7693C112.73 30.4038 113.553 30.1573 114.41 30.1573C116.505 30.1573 117.015 31.5938 117.015 32.9707V35.5377C117.015 36.1326 117.04 36.7191 117.125 37.1866H115.988L115.996 37.1951ZM115.81 33.6847C114.452 33.6592 112.908 33.8972 112.908 35.2317C112.908 36.0391 113.442 36.4216 114.087 36.4216C114.978 36.4216 115.547 35.8521 115.742 35.2742C115.784 35.1467 115.81 35.0022 115.81 34.8747V33.6847Z" fill="#101B41"></path><path d="M119.026 27.1143H120.273V37.1951H119.026V27.1143Z" fill="#101B41"></path><path d="M132.084 36.8806C131.634 37.1101 130.726 37.3311 129.564 37.3311C126.874 37.3311 124.846 35.6311 124.846 32.4947C124.846 29.3583 126.874 27.4713 129.835 27.4713C131.023 27.4713 131.778 27.7263 132.101 27.8963L131.804 28.9078C131.337 28.6783 130.667 28.5083 129.878 28.5083C127.638 28.5083 126.153 29.9448 126.153 32.4522C126.153 34.7896 127.502 36.2941 129.818 36.2941C130.565 36.2941 131.337 36.1411 131.829 35.8946L132.084 36.8721V36.8806Z" fill="#101B41"></path><path d="M133.586 27.1143H134.833V31.3982H134.858C135.054 31.0412 135.367 30.7267 135.749 30.5142C136.114 30.3017 136.555 30.1572 137.022 30.1572C137.938 30.1572 139.415 30.7267 139.415 33.0982V37.1866H138.167V33.2427C138.167 32.1377 137.76 31.2027 136.581 31.2027C135.775 31.2027 135.138 31.7722 134.909 32.4522C134.841 32.6222 134.824 32.8092 134.824 33.0472V37.1951H133.577V27.1143H133.586Z" fill="#101B41"></path><path d="M142.138 33.9822C142.164 35.6736 143.241 36.3706 144.489 36.3706C145.38 36.3706 145.923 36.2176 146.389 36.0136L146.601 36.9061C146.16 37.1016 145.413 37.3311 144.319 37.3311C142.206 37.3311 140.95 35.9371 140.95 33.8717C140.95 31.8062 142.172 30.1658 144.166 30.1658C146.406 30.1658 147 32.1377 147 33.4042C147 33.6592 146.975 33.8547 146.958 33.9822H142.138ZM145.795 33.0897C145.812 32.2907 145.473 31.0582 144.064 31.0582C142.8 31.0582 142.249 32.2227 142.155 33.0897H145.795Z" fill="#101B41"></path><path d="M153.432 36.9401C153.109 37.1101 152.38 37.3396 151.463 37.3396C149.393 37.3396 148.052 35.9371 148.052 33.8377C148.052 31.7382 149.495 30.1913 151.735 30.1913C152.473 30.1913 153.126 30.3783 153.466 30.5483L153.186 31.5173C152.889 31.3473 152.422 31.1943 151.743 31.1943C150.173 31.1943 149.316 32.3587 149.316 33.7952C149.316 35.3847 150.335 36.3621 151.701 36.3621C152.405 36.3621 152.88 36.1751 153.228 36.0221L153.44 36.9571L153.432 36.9401Z" fill="#101B41"></path><path d="M156.121 33.4722H156.147C156.317 33.2342 156.554 32.9367 156.758 32.6902L158.769 30.3188H160.271L157.623 33.1407L160.644 37.1866H159.125L156.758 33.8972L156.121 34.6026V37.1866H154.891V27.1058H156.121V33.4637V33.4722Z" fill="#101B41"></path><path d="M164.275 32.8942V33.8206H160.78V32.8942H164.275Z" fill="#101B41"></path><path d="M171.47 35.3166C171.47 36.0221 171.487 36.6511 171.53 37.1866H170.427L170.359 36.0646H170.333C170.011 36.6171 169.281 37.3396 168.068 37.3396C166.99 37.3396 165.701 36.7446 165.701 34.3306V30.3102H166.948V34.1181C166.948 35.4271 167.347 36.3026 168.475 36.3026C169.307 36.3026 169.892 35.7246 170.121 35.1636C170.189 34.9766 170.232 34.7556 170.232 34.5261V30.3102H171.479V35.3081L171.47 35.3166Z" fill="#101B41"></path><path d="M173.541 32.5627C173.541 31.6787 173.515 30.9732 173.481 30.3188H174.601L174.661 31.5002H174.686C175.195 30.6588 176.001 30.1658 177.121 30.1658C178.776 30.1658 180.023 31.5682 180.023 33.6592C180.023 36.1326 178.521 37.3481 176.909 37.3481C176.001 37.3481 175.212 36.9486 174.797 36.2686H174.771V40H173.541V32.5627ZM174.771 34.3987C174.771 34.5857 174.797 34.7557 174.831 34.9087C175.06 35.7756 175.806 36.3706 176.697 36.3706C178.012 36.3706 178.776 35.2911 178.776 33.7187C178.776 32.3417 178.055 31.1602 176.74 31.1602C175.891 31.1602 175.094 31.7722 174.856 32.7072C174.814 32.8602 174.771 33.0472 174.771 33.2172V34.3987Z" fill="#101B41"></path></g><defs><clipPath id="clip0_2603_712"><rect width="238" height="40" fill="white"></rect></clipPath></defs></svg>